<svg id="Ebene_1" data-name="Ebene 1"
  xmlns="http://www.w3.org/2000/svg" viewBox="0 0 305 47.08">
  <path id="Path_39" data-name="Path 39" d="M22.07,12.85H7.4l-3,3v2.23L28,34.71a2,2,0,0,1,.91,1.75v4.12a2.13,2.13,0,0,1-.56,1.4l-4,4.33a2.23,2.23,0,0,1-1.54.77H6.36a2,2,0,0,1-1.47-.63L.63,42.19A2,2,0,0,1,0,40.72V38.55H4.19v1.33l3,2.93H21.93l2.79-3.07V37.57L1.12,21a2,2,0,0,1-.91-1.74V15a2,2,0,0,1,.63-1.47L5.1,9.29a1.91,1.91,0,0,1,1.46-.56H22.91a1.93,1.93,0,0,1,1.47.56l4.05,4.05a2,2,0,0,1,.62,1.47V17H24.72v-1.4Z" style="fill:currentColor"/>
  <path id="Path_40" data-name="Path 40" d="M81.31,16.42l-3.7-3.57H70.83L59.38,24.31v7.05L70.9,42.81h6.64L81.17,39l3.07,2.94L80,46.38a2.25,2.25,0,0,1-1.54.63H70.07a2.34,2.34,0,0,1-1.47-.7L55.82,33.74a2.21,2.21,0,0,1-.63-1.47v-8.8A2,2,0,0,1,55.75,22L68.53,9.29A2.19,2.19,0,0,1,70,8.73h8.45a1.92,1.92,0,0,1,1.46.49l4.33,4.26Z" style="fill:currentColor"/>
  <path id="Path_41" data-name="Path 41" d="M114.5,8.73V25.56h20.81V8.73h4.13V46.94h-4.12V29.48H114.5V46.94h-4.12V8.73Z" style="fill:currentColor"/>
  <path id="Path_42" data-name="Path 42" d="M169.62,8.73V39.81l3,2.94h14.95l2.86-3v-31h4.19V40.58a2,2,0,0,1-.56,1.4L190,46.24a2.28,2.28,0,0,1-1.54.7H171.71a2.17,2.17,0,0,1-1.46-.63l-4.12-4.12a2.23,2.23,0,0,1-.56-1.47v-32ZM177.13,0V4.26h-4.4V0Zm10.79,0V4.26h-4.33V0Z" style="fill:currentColor"/>
  <path id="Path_43" data-name="Path 43" d="M249.81,8.73v4.19H237.38V47h-4.19V12.92H220.76V8.73Z" style="fill:currentColor"/>
  <path id="Path_44" data-name="Path 44" d="M304.3,16.55,280.14,41.41v1.33H305V47H276V40.58a2,2,0,0,1,.62-1.47l24.17-24.86V12.92h-24.8V8.73h29v6.36A2,2,0,0,1,304.3,16.55Z" style="fill:currentColor"/>
</svg>
