<svg xmlns="http://www.w3.org/2000/svg" viewBox="0 0 118.54 36.93">
  <g id="Ebene_2" data-name="Ebene 2">
    <g id="logo">
      <path d="M1.6,0V6.57H9.69V0h1.6V14.88H9.69V8.09H1.6v6.79H0V0Z" style="fill:currentColor"/>
      <path d="M23.05,14.9h-1.6V5.73a.88.88,0,0,1,.24-.55L26.5.27A.7.7,0,0,1,27,0a.93.93,0,0,1,.63.24l4.85,4.94a.81.81,0,0,1,.22.57V14.9H31.11V9.61H23.05Zm8.06-6.81v-2L27.07,2l-4,4v2Z" style="fill:currentColor"/>
      <path d="M42.9,0h1.6l8.09,8.28V0h1.6V14.88h-1.6V10.8L44.5,2.44V14.88H42.9Z" style="fill:currentColor"/>
      <path d="M64.35,0H66L74,8.31V0h1.6V14.88H74V10.8L66,2.44V14.88h-1.6Z" style="fill:currentColor"/>
      <path d="M97.09,0V1.66H87.4V6.57h6.46V8.23H87.4v5h9.69V14.9H85.8V0Z" style="fill:currentColor"/>
      <path d="M115.83,1.63h-5.71L109,2.8v.86l9.17,6.46a.79.79,0,0,1,.36.68v1.61a.84.84,0,0,1-.22.54l-1.55,1.68a.85.85,0,0,1-.6.3h-6.4a.78.78,0,0,1-.57-.24L107.49,13a.78.78,0,0,1-.24-.57v-.84h1.63v.51L110,13.27h5.73l1.09-1.19v-.84l-9.18-6.46a.8.8,0,0,1-.35-.68V2.47a.78.78,0,0,1,.24-.57L109.23.24A.75.75,0,0,1,109.8,0h6.35a.75.75,0,0,1,.57.21l1.58,1.58a.78.78,0,0,1,.24.57v.87h-1.68V2.71Z" style="fill:currentColor"/>
      <path d="M8.58,23.63H2.88L1.71,24.8v.86l9.17,6.47a.76.76,0,0,1,.36.67v1.61A.79.79,0,0,1,11,35L9.47,36.63a.85.85,0,0,1-.59.3H2.47a.78.78,0,0,1-.57-.24L.24,35A.78.78,0,0,1,0,34.46v-.84H1.63v.51L2.8,35.27H8.52l1.09-1.19v-.84L.43,26.78a.8.8,0,0,1-.35-.68V24.47a.75.75,0,0,1,.25-.57L2,22.24A.75.75,0,0,1,2.55,22H8.9a.75.75,0,0,1,.57.21l1.58,1.58a.78.78,0,0,1,.24.57v.87H9.61v-.55Z" style="fill:currentColor"/>
      <path d="M31.6,25l-1.44-1.38H27.53l-4.45,4.45v2.74l4.48,4.45h2.58l1.41-1.49,1.19,1.14-1.65,1.74a.88.88,0,0,1-.6.24H27.23a.91.91,0,0,1-.57-.27l-5-4.88a.89.89,0,0,1-.24-.57V27.75a.78.78,0,0,1,.22-.56l5-5A.9.9,0,0,1,27.2,22h3.29a.76.76,0,0,1,.57.19l1.68,1.65Z" style="fill:currentColor"/>
      <path d="M44.5,22v6.54h8.09V22h1.6V36.88h-1.6V30.09H44.5v6.79H42.9V22Z" style="fill:currentColor"/>
      <path d="M65.92,22V34.11l1.17,1.14H72.9L74,34.08V22h1.63V34.41a.8.8,0,0,1-.22.54L73.85,36.6a.89.89,0,0,1-.6.28H66.74a.85.85,0,0,1-.57-.25L64.57,35a.82.82,0,0,1-.22-.57V22Zm2.15-3.4v1.66H66.36V18.63Zm5,0v1.66H71.35V18.63Z" style="fill:currentColor"/>
      <path d="M97.09,22v1.63H92.26V36.9H90.63V23.66H85.8V22Z" style="fill:currentColor"/>
      <path d="M118.27,25.07l-9.39,9.66v.52h9.66V36.9H107.25V34.41a.78.78,0,0,1,.24-.57l9.39-9.67v-.51h-9.63V22h11.26V24.5A.81.81,0,0,1,118.27,25.07Z" style="fill:currentColor"/>
    </g>
  </g>
</svg>
