<svg id="Ebene_1" data-name="Ebene 1"
  xmlns="http://www.w3.org/2000/svg" viewBox="0 0 305 38.45">
  <path id="Path_33" data-name="Path 33" d="M4.12.07V16.9H24.94V.07h4.12v38.2H24.94V20.81H4.12V38.27H0V.07Z" style="fill:currentColor"/>
  <path id="Path_34" data-name="Path 34" d="M59.31,38.35H55.19V14.74a2.11,2.11,0,0,1,.63-1.4L68.18.7a1.82,1.82,0,0,1,1.4-.63A2.28,2.28,0,0,1,71.19.7l12.5,12.71a2.1,2.1,0,0,1,.56,1.47V38.35h-4.2V24.73H59.31ZM80.05,20.82v-5.1L69.65,5.24,59.38,15.65v5.16Z" style="fill:currentColor"/>
  <path id="Path_35" data-name="Path 35" d="M110.38.07h4.12l20.81,21.3V.07h4.13v38.2h-4.12V27.8L114.5,6.28v32h-4.12Z" style="fill:currentColor"/>
  <path id="Path_36" data-name="Path 36" d="M165.57.07h4.12l20.81,21.3V.07h4.12v38.2H190.5V27.8L169.69,6.28v32h-4.12Z" style="fill:currentColor"/>
  <path id="Path_37" data-name="Path 37" d="M249.81,0V4.26H224.88V16.9H241.5v4.26H224.88v13h24.93v4.2H220.76V0Z" style="fill:currentColor"/>
  <path id="Path_38" data-name="Path 38" d="M298,4.19H283.35l-3,3V9.43L304,26.05a2,2,0,0,1,.91,1.75v4.12a2,2,0,0,1-.56,1.4l-4,4.33a2.17,2.17,0,0,1-1.53.77H282.3a2,2,0,0,1-1.46-.63l-4.27-4.26a2,2,0,0,1-.62-1.47V29.89h4.19v1.33l3,2.93h14.73l2.8-3.07V28.91l-23.6-16.62a2,2,0,0,1-.92-1.74V6.36a2,2,0,0,1,.63-1.47L281.05.63a1.93,1.93,0,0,1,1.46-.56h16.34a2,2,0,0,1,1.47.56l4.05,4.05A2,2,0,0,1,305,6.15V8.38h-4.33V7Z" style="fill:currentColor"/>
</svg>
