<svg id="Ebene_1" data-name="Ebene 1"
  xmlns="http://www.w3.org/2000/svg" preserveAspectRatio="xMinYMin meet" viewBox="0 0 55.23 2954.48">
  <g id="Group_2" data-name="Group 2">
    <path id="Path_33" data-name="Path 33" d="M8.84,732.92H25.67V712.1H8.84V708H47v4.12H29.58v20.82H47V737H8.84Z" style="fill:currentColor"/>
    <path id="Path_34" data-name="Path 34" d="M47.11,677.73v4.12H23.5a2.21,2.21,0,0,1-1.4-.63L9.46,668.86a1.81,1.81,0,0,1-.62-1.4,2.27,2.27,0,0,1,.62-1.61l12.71-12.5a2.11,2.11,0,0,1,1.47-.56H47.11V657H33.49v20.75ZM29.58,657h-5.1L14,667.39l10.41,10.27h5.17Z" style="fill:currentColor"/>
    <path id="Path_35" data-name="Path 35" d="M8.84,626.66v-4.12l21.3-20.81H8.84V597.6H47v4.12H36.56L15.05,622.54H47v4.12Z" style="fill:currentColor"/>
    <path id="Path_36" data-name="Path 36" d="M8.84,571.47v-4.12l21.3-20.81H8.84v-4.12H47v4.12H36.56L15.05,567.35H47v4.12Z" style="fill:currentColor"/>
    <path id="Path_37" data-name="Path 37" d="M8.76,487.22H13v24.94H25.67V495.54h4.26v16.62h13V487.22h4.19v29.06H8.76Z" style="fill:currentColor"/>
    <path id="Path_38" data-name="Path 38" d="M13,439v14.67l3,3h2.23l16.63-23.61a2,2,0,0,1,1.74-.9h4.12a2.07,2.07,0,0,1,1.4.55l4.33,4a2.17,2.17,0,0,1,.77,1.54v16.49a2,2,0,0,1-.63,1.46l-4.26,4.26a2,2,0,0,1-1.46.63H38.66V456.9H40l2.93-3V439.16l-3.07-2.79H37.68L21.06,460a2,2,0,0,1-1.75.91H15.12a2,2,0,0,1-1.47-.62L9.39,456a1.94,1.94,0,0,1-.55-1.46V438.18a1.93,1.93,0,0,1,.55-1.46l4-4.05a2,2,0,0,1,1.47-.63h2.24v4.33h-1.4Z" style="fill:currentColor"/>
    <path id="Path_39" data-name="Path 39" d="M12.81,347v14.67l3,3h2.23L34.68,341a2,2,0,0,1,1.74-.91h4.12a2.13,2.13,0,0,1,1.4.56l4.33,4A2.19,2.19,0,0,1,47,346.2v16.48a2,2,0,0,1-.63,1.47l-4.26,4.26a2,2,0,0,1-1.47.63H38.51v-4.19h1.33l2.93-3V347.11l-3.07-2.8H37.53L20.91,367.92a2,2,0,0,1-1.74.91H15a2,2,0,0,1-1.47-.63l-4.26-4.26a2,2,0,0,1-.56-1.47V346.13a2,2,0,0,1,.56-1.47l4.05-4.05a2,2,0,0,1,1.47-.63H17v4.33H15.6Z" style="fill:currentColor"/>
    <path id="Path_40" data-name="Path 40" d="M16.38,287.73l-3.57,3.7v6.77l11.46,11.46h7.05l11.46-11.52V291.5l-3.84-3.63,2.93-3.08,4.47,4.27a2.24,2.24,0,0,1,.63,1.53V299a2.34,2.34,0,0,1-.7,1.47L33.7,313.22a2.19,2.19,0,0,1-1.47.63h-8.8a2.07,2.07,0,0,1-1.46-.56L9.26,300.51A2.27,2.27,0,0,1,8.69,299v-8.45a2,2,0,0,1,.49-1.47l4.26-4.33Z" style="fill:currentColor"/>
    <path id="Path_41" data-name="Path 41" d="M8.69,254.54H25.52V233.73H8.69V229.6H46.9v4.12H29.44v20.82H46.9v4.12H8.69Z" style="fill:currentColor"/>
    <path id="Path_42" data-name="Path 42" d="M8.69,199.42H39.78l2.93-3V181.47l-3-2.86h-31v-4.19H40.54a2,2,0,0,1,1.4.56L46.2,179a2.28,2.28,0,0,1,.7,1.54v16.76a2.17,2.17,0,0,1-.63,1.46l-4.12,4.12a2.19,2.19,0,0,1-1.47.56h-32ZM0,193.9H4.22v4.4H0Zm0-12.78H4.22v4.33H0Z" style="fill:currentColor"/>
    <path id="Path_43" data-name="Path 43" d="M8.69,119.22h4.19v12.44H47v4.19H12.88v12.43H8.69Z" style="fill:currentColor"/>
    <path id="Path_44" data-name="Path 44" d="M16.51,64.74,41.38,88.9H42.7V64H47V93.09H40.54a2,2,0,0,1-1.46-.63L14.21,68.3H12.88V93.1H8.69v-29h6.36A2,2,0,0,1,16.51,64.74Z" style="fill:currentColor"/>
  </g>
  <g id="Group_2-2" data-name="Group 2">
    <path id="Path_33-2" data-name="Path 33" d="M8.84,1470.83H25.67V1450H8.84v-4.12H47V1450H29.58v20.81H47V1475H8.84Z" style="fill:currentColor"/>
    <path id="Path_34-2" data-name="Path 34" d="M47.11,1415.65v4.12H23.5a2.26,2.26,0,0,1-1.4-.63L9.46,1406.78a1.83,1.83,0,0,1-.62-1.4,2.27,2.27,0,0,1,.62-1.61l12.71-12.5a2.11,2.11,0,0,1,1.47-.56H47.11v4.19H33.49v20.75ZM29.58,1394.9h-5.1L14,1405.31l10.41,10.27h5.17Z" style="fill:currentColor"/>
    <path id="Path_35-2" data-name="Path 35" d="M8.84,1364.58v-4.12l21.3-20.82H8.84v-4.12H47v4.12H36.56l-21.51,20.82H47v4.12Z" style="fill:currentColor"/>
    <path id="Path_36-2" data-name="Path 36" d="M8.84,1309.39v-4.12l21.3-20.81H8.84v-4.13H47v4.13H36.56l-21.51,20.81H47v4.12Z" style="fill:currentColor"/>
    <path id="Path_37-2" data-name="Path 37" d="M8.76,1225.14H13v24.94H25.67v-16.62h4.26v16.62h13v-24.94h4.19v29.06H8.76Z" style="fill:currentColor"/>
    <path id="Path_38-2" data-name="Path 38" d="M13,1176.94v14.67l3,3h2.23L34.82,1171a2,2,0,0,1,1.74-.91h4.12a2.13,2.13,0,0,1,1.4.56l4.33,4a2.15,2.15,0,0,1,.77,1.54v16.49a2,2,0,0,1-.63,1.46l-4.26,4.26a2,2,0,0,1-1.46.63H38.66v-4.19H40l2.93-3v-14.74l-3.07-2.79H37.68l-16.62,23.6a2,2,0,0,1-1.75.91H15.12a2,2,0,0,1-1.47-.63l-4.26-4.26a2,2,0,0,1-.55-1.47V1176.1a2,2,0,0,1,.55-1.47l4-4.05a2,2,0,0,1,1.47-.62h2.24v4.32h-1.4Z" style="fill:currentColor"/>
    <path id="Path_39-2" data-name="Path 39" d="M12.81,1084.89v14.66l3,3h2.23L34.68,1079a2,2,0,0,1,1.74-.91h4.12a2.08,2.08,0,0,1,1.4.56l4.33,4a2.17,2.17,0,0,1,.77,1.54v16.48a2,2,0,0,1-.63,1.47l-4.26,4.26a2,2,0,0,1-1.47.63H38.51v-4.19h1.33l2.93-3V1085l-3.07-2.79H37.53l-16.62,23.61a2,2,0,0,1-1.74.91H15a2,2,0,0,1-1.47-.63l-4.26-4.26a2,2,0,0,1-.56-1.47v-16.34a2,2,0,0,1,.56-1.47l4.05-4a2,2,0,0,1,1.47-.63H17v4.33H15.6Z" style="fill:currentColor"/>
    <path id="Path_40-2" data-name="Path 40" d="M16.38,1025.64l-3.57,3.7v6.78l11.46,11.46h7.05l11.46-11.53v-6.63l-3.84-3.64,2.93-3.07,4.47,4.26a2.29,2.29,0,0,1,.63,1.54v8.38a2.34,2.34,0,0,1-.7,1.47L33.7,1051.14a2.24,2.24,0,0,1-1.47.63h-8.8a2.07,2.07,0,0,1-1.46-.56L9.26,1038.43a2.29,2.29,0,0,1-.57-1.47v-8.45a2,2,0,0,1,.49-1.47l4.26-4.33Z" style="fill:currentColor"/>
    <path id="Path_41-2" data-name="Path 41" d="M8.69,992.46H25.52V971.64H8.69v-4.12H46.9v4.12H29.44v20.82H46.9v4.12H8.69Z" style="fill:currentColor"/>
    <path id="Path_42-2" data-name="Path 42" d="M8.69,937.34H39.78l2.93-3v-15l-3-2.86h-31v-4.19H40.54a2,2,0,0,1,1.4.56L46.2,917a2.28,2.28,0,0,1,.7,1.53v16.76a2.19,2.19,0,0,1-.63,1.47l-4.12,4.12a2.19,2.19,0,0,1-1.47.56h-32ZM0,931.82H4.22v4.4H0ZM0,919H4.22v4.33H0Z" style="fill:currentColor"/>
    <path id="Path_43-2" data-name="Path 43" d="M8.69,857.14h4.19v12.44H47v4.19H12.88V886.2H8.69Z" style="fill:currentColor"/>
    <path id="Path_44-2" data-name="Path 44" d="M16.51,802.65l24.87,24.17H42.7V802H47v29H40.54a2,2,0,0,1-1.46-.63L14.21,806.21H12.88V831H8.69V802h6.36A2,2,0,0,1,16.51,802.65Z" style="fill:currentColor"/>
  </g>
  <g id="Group_2-3" data-name="Group 2">
    <path id="Path_33-3" data-name="Path 33" d="M8.86,2208.7H25.69v-20.81H8.86v-4.12h38.2v4.12H29.6v20.81H47.06v4.13H8.86Z" style="fill:currentColor"/>
    <path id="Path_34-3" data-name="Path 34" d="M47.13,2153.52v4.12H23.52a2.24,2.24,0,0,1-1.4-.63L9.48,2144.65a1.83,1.83,0,0,1-.62-1.4,2.23,2.23,0,0,1,.62-1.61l12.71-12.5a2.07,2.07,0,0,1,1.47-.56H47.13v4.19H33.51v20.75ZM29.6,2132.77H24.5L14,2143.18l10.41,10.27H29.6Z" style="fill:currentColor"/>
    <path id="Path_35-3" data-name="Path 35" d="M8.86,2102.45v-4.12l21.3-20.82H8.86v-4.12h38.2v4.12H36.58l-21.51,20.81h32v4.13Z" style="fill:currentColor"/>
    <path id="Path_36-3" data-name="Path 36" d="M8.86,2047.26v-4.12l21.3-20.81H8.86v-4.13h38.2v4.13H36.58l-21.51,20.81h32v4.12Z" style="fill:currentColor"/>
    <path id="Path_37-3" data-name="Path 37" d="M8.78,1963H13V1988H25.69v-16.62H30V1988h13V1963h4.19v29.06H8.78Z" style="fill:currentColor"/>
    <path id="Path_38-3" data-name="Path 38" d="M13,1914.81v14.67l3,3h2.23l16.62-23.61a2,2,0,0,1,1.75-.91H40.7a2.13,2.13,0,0,1,1.4.56l4.33,4a2.15,2.15,0,0,1,.77,1.54v16.48a2,2,0,0,1-.63,1.47l-4.26,4.26a2,2,0,0,1-1.47.63H38.68v-4.19H40l2.93-3V1915l-3.07-2.79H37.7l-16.62,23.6a2,2,0,0,1-1.75.91H15.14a2,2,0,0,1-1.47-.63l-4.26-4.26a2,2,0,0,1-.55-1.47V1914a2,2,0,0,1,.55-1.47l4.05-4a2,2,0,0,1,1.47-.63h2.24v4.33h-1.4Z" style="fill:currentColor"/>
    <path id="Path_39-3" data-name="Path 39" d="M12.83,1822.76v14.66l3,3h2.23l16.62-23.6a2,2,0,0,1,1.75-.91h4.12a2,2,0,0,1,1.4.56l4.33,4a2.17,2.17,0,0,1,.77,1.54v16.48a2,2,0,0,1-.63,1.47l-4.26,4.26a2,2,0,0,1-1.47.63H38.53v-4.19h1.33l2.93-3v-14.74l-3.07-2.79H37.55l-16.62,23.61a2,2,0,0,1-1.74.91H15a2,2,0,0,1-1.47-.63l-4.26-4.26a2,2,0,0,1-.56-1.47v-16.34a2,2,0,0,1,.56-1.47l4.05-4a2,2,0,0,1,1.47-.63H17v4.33h-1.4Z" style="fill:currentColor"/>
    <path id="Path_40-3" data-name="Path 40" d="M16.4,1763.51l-3.57,3.7V1774l11.46,11.46h7.05l11.46-11.53v-6.63L39,1763.65l2.93-3.07,4.47,4.26a2.29,2.29,0,0,1,.63,1.54v8.38a2.34,2.34,0,0,1-.7,1.47L33.72,1789a2.26,2.26,0,0,1-1.47.63h-8.8a2.11,2.11,0,0,1-1.47-.56L9.27,1776.3a2.23,2.23,0,0,1-.56-1.47v-8.45a1.93,1.93,0,0,1,.49-1.47l4.26-4.33Z" style="fill:currentColor"/>
    <path id="Path_41-3" data-name="Path 41" d="M8.71,1730.33H25.54v-20.82H8.71v-4.12H46.92v4.12H29.46v20.82H46.92v4.12H8.71Z" style="fill:currentColor"/>
    <path id="Path_42-3" data-name="Path 42" d="M8.71,1675.21H39.8l2.93-3v-15l-3-2.86h-31v-4.19H40.56a2.05,2.05,0,0,1,1.4.55l4.26,4.06a2.28,2.28,0,0,1,.7,1.53v16.76a2.19,2.19,0,0,1-.63,1.47l-4.12,4.12a2.21,2.21,0,0,1-1.47.56h-32ZM0,1669.69H4.24v4.4H0Zm0-12.78H4.24v4.33H0Z" style="fill:currentColor"/>
    <path id="Path_43-3" data-name="Path 43" d="M8.71,1595H12.9v12.44H47v4.19H12.9v12.43H8.71Z" style="fill:currentColor"/>
    <path id="Path_44-3" data-name="Path 44" d="M16.53,1540.52l24.87,24.17h1.32v-24.87H47v29.06H40.56a2,2,0,0,1-1.46-.63l-24.87-24.17H12.9v24.8H8.71v-29h6.36A2,2,0,0,1,16.53,1540.52Z" style="fill:currentColor"/>
  </g>
  <g id="Group_2-4" data-name="Group 2">
    <path id="Path_33-4" data-name="Path 33" d="M8.86,2946.62H25.69v-20.81H8.86v-4.12h38.2v4.12H29.6v20.81H47.06v4.12H8.86Z" style="fill:currentColor"/>
    <path id="Path_34-4" data-name="Path 34" d="M47.13,2891.43v4.13H23.52a2.24,2.24,0,0,1-1.4-.63L9.48,2882.56a1.81,1.81,0,0,1-.62-1.4,2.23,2.23,0,0,1,.62-1.6l12.71-12.5a2,2,0,0,1,1.47-.56H47.13v4.19H33.51v20.74ZM29.6,2870.69H24.5L14,2881.1l10.41,10.26H29.6Z" style="fill:currentColor"/>
    <path id="Path_35-4" data-name="Path 35" d="M8.86,2840.37v-4.12l21.3-20.82H8.86v-4.12h38.2v4.12H36.58l-21.51,20.81h32v4.13Z" style="fill:currentColor"/>
    <path id="Path_36-4" data-name="Path 36" d="M8.86,2785.18v-4.12l21.3-20.82H8.86v-4.12h38.2v4.12H36.58l-21.51,20.82h32v4.12Z" style="fill:currentColor"/>
    <path id="Path_37-4" data-name="Path 37" d="M8.78,2700.93H13v24.94H25.69v-16.63H30v16.63h13v-24.94h4.19V2730H8.78Z" style="fill:currentColor"/>
    <path id="Path_38-4" data-name="Path 38" d="M13,2652.73v14.67l3,3h2.23l16.62-23.61a2,2,0,0,1,1.75-.91H40.7a2.13,2.13,0,0,1,1.4.56l4.33,4a2.15,2.15,0,0,1,.77,1.54v16.48a2,2,0,0,1-.63,1.47l-4.26,4.26a2,2,0,0,1-1.47.63H38.68v-4.19H40l2.93-3v-14.74l-3.07-2.8H37.7l-16.62,23.61a2,2,0,0,1-1.75.91H15.14a2,2,0,0,1-1.47-.63l-4.26-4.26a2,2,0,0,1-.55-1.47v-16.34a2,2,0,0,1,.55-1.47l4.05-4.05a2,2,0,0,1,1.47-.63h2.24v4.33h-1.4Z" style="fill:currentColor"/>
    <path id="Path_39-4" data-name="Path 39" d="M12.83,2560.68v14.66l3,3h2.23l16.62-23.61a2,2,0,0,1,1.75-.9h4.12a2.07,2.07,0,0,1,1.4.55l4.33,4a2.21,2.21,0,0,1,.77,1.54v16.49a2,2,0,0,1-.63,1.46l-4.26,4.27a2,2,0,0,1-1.47.62H38.53v-4.19h1.33l2.93-3v-14.74L39.72,2558H37.55l-16.62,23.61a2,2,0,0,1-1.74.9H15a2,2,0,0,1-1.47-.62l-4.26-4.27a1.93,1.93,0,0,1-.56-1.46v-16.34a2,2,0,0,1,.56-1.47l4.05-4a2,2,0,0,1,1.47-.63H17V2558h-1.4Z" style="fill:currentColor"/>
    <path id="Path_40-4" data-name="Path 40" d="M16.4,2501.43l-3.57,3.7v6.78l11.46,11.45h7.05l11.46-11.52v-6.64L39,2501.57l2.93-3.07,4.47,4.26a2.27,2.27,0,0,1,.63,1.54v8.38a2.37,2.37,0,0,1-.7,1.47l-12.57,12.78a2.31,2.31,0,0,1-1.47.63h-8.8A2.11,2.11,0,0,1,22,2527L9.27,2514.21a2.18,2.18,0,0,1-.56-1.46v-8.45a1.93,1.93,0,0,1,.49-1.47l4.26-4.33Z" style="fill:currentColor"/>
    <path id="Path_41-4" data-name="Path 41" d="M8.71,2468.25H25.54v-20.82H8.71v-4.12H46.92v4.12H29.46v20.82H46.92v4.12H8.71Z" style="fill:currentColor"/>
    <path id="Path_42-4" data-name="Path 42" d="M8.71,2413.13H39.8l2.93-3v-15l-3-2.86h-31v-4.2H40.56a2,2,0,0,1,1.4.56l4.26,4.05a2.32,2.32,0,0,1,.7,1.54V2411a2.19,2.19,0,0,1-.63,1.47l-4.12,4.12a2.21,2.21,0,0,1-1.47.56h-32ZM0,2407.61H4.24v4.4H0Zm0-12.78H4.24v4.33H0Z" style="fill:currentColor"/>
    <path id="Path_43-4" data-name="Path 43" d="M8.71,2332.93H12.9v12.43H47v4.19H12.9V2362H8.71Z" style="fill:currentColor"/>
    <path id="Path_44-4" data-name="Path 44" d="M16.53,2278.44l24.87,24.17h1.32v-24.87H47v29.06H40.56a2,2,0,0,1-1.46-.63L14.23,2282H12.9v24.8H8.71v-29h6.36A2,2,0,0,1,16.53,2278.44Z" style="fill:currentColor"/>
  </g>
</svg>
